<svg xmlns="http://www.w3.org/2000/svg" xmlns:xlink="http://www.w3.org/1999/xlink" width="978.768" height="634.935" viewBox="0 0 978.768 634.935">
  <defs>
    <linearGradient id="linear-gradient" x1="-7.304" y1="1.782" x2="-7.293" y2="1.782" gradientUnits="objectBoundingBox">
      <stop offset="0" stop-color="#1c2465"/>
      <stop offset="1" stop-color="#050a2f"/>
    </linearGradient>
    <linearGradient id="linear-gradient-2" x1="-5.491" y1="1.76" x2="-5.484" y2="1.76" gradientUnits="objectBoundingBox">
      <stop offset="0" stop-color="#1f2a82"/>
      <stop offset="1" stop-color="#131d6c"/>
    </linearGradient>
    <linearGradient id="linear-gradient-3" x1="0.684" y1="1.011" x2="0.498" y2="0.492" gradientUnits="objectBoundingBox">
      <stop offset="0" stop-color="#1059e8"/>
      <stop offset="1" stop-color="#10dbe8"/>
    </linearGradient>
    <linearGradient id="linear-gradient-4" x1="0" y1="0.5" x2="1" y2="0.5" xlink:href="#linear-gradient"/>
    <linearGradient id="linear-gradient-5" x1="0" y1="0.5" x2="1" y2="0.5" xlink:href="#linear-gradient-2"/>
    <linearGradient id="linear-gradient-6" x1="0.768" y1="-0.162" x2="0.318" y2="1.001" gradientUnits="objectBoundingBox">
      <stop offset="0" stop-color="#fff"/>
      <stop offset="1" stop-color="#d6e0f3"/>
    </linearGradient>
    <linearGradient id="linear-gradient-7" x1="0.701" y1="-0.194" x2="0.285" y2="1.291" xlink:href="#linear-gradient-6"/>
  </defs>
  <g id="Folder_Management-01" data-name="Folder Management-01" transform="translate(-209.337 -240.287)">
    <g id="Group_14" data-name="Group 14" transform="translate(327.929 283.696)">
      <path id="Path_1" data-name="Path 1" d="M465.753,17.748c163.232,0,295.763,132.53,295.763,295.763S628.995,609.274,465.753,609.274,169.99,476.744,169.99,313.511,302.512,17.748,465.753,17.748Zm0,113.585c100.549,0,182.178,81.63,182.178,182.178S566.3,495.69,465.753,495.69,283.566,414.06,283.566,313.511,365.2,131.333,465.753,131.333Z" transform="translate(-169.99 -17.748)" fill="rgba(229,229,229,0.3)" fill-rule="evenodd"/>
    </g>
    <g id="Group_15" data-name="Group 15" transform="translate(209.337 836.168)">
      <ellipse id="Ellipse_2" data-name="Ellipse 2" cx="489.384" cy="19.523" rx="489.384" ry="19.523" transform="translate(0 0)" fill="#000d45"/>
    </g>
    <g id="Group_16" data-name="Group 16" transform="translate(610.931 240.287)">
      <path id="Path_2" data-name="Path 2" d="M799.942,72.777A11.773,11.773,0,0,0,788.165,61H398.027a11.773,11.773,0,0,0-11.777,11.777v268.3a11.773,11.773,0,0,0,11.777,11.777H788.165a11.773,11.773,0,0,0,11.777-11.777Z" transform="translate(-386.249 -61)" fill="#fff" fill-rule="evenodd"/>
    </g>
    <g id="Group_22" data-name="Group 22" transform="translate(812.921 259.792)">
      <g id="Group_19" data-name="Group 19" transform="translate(9.941 0)">
        <g id="Group_17" data-name="Group 17">
          <path id="Path_3" data-name="Path 3" d="M4170.42,124.621h-37.329v11.611H4172.3Z" transform="translate(-4133.091 -124.621)" fill="#1a996c" fill-rule="evenodd"/>
        </g>
        <g id="Group_18" data-name="Group 18" transform="translate(0.041 11.618)">
          <path id="Path_4" data-name="Path 4" d="M8013.88,537.342a7.859,7.859,0,0,0-1.777-5.022,5.741,5.741,0,0,0-4.356-2.088h-68.518V563.8a7.859,7.859,0,0,0,1.778,5.022,5.693,5.693,0,0,0,4.356,2.088h62.383a5.693,5.693,0,0,0,4.356-2.088,7.858,7.858,0,0,0,1.777-5.022Z" transform="translate(-7939.229 -530.232)" fill="#0cb076" fill-rule="evenodd"/>
        </g>
      </g>
      <g id="Group_20" data-name="Group 20" transform="translate(9.94 65.786)">
        <path id="Path_5" data-name="Path 5" d="M4207.766,162.668a4.977,4.977,0,0,0-4.977-4.96H4138.05a4.948,4.948,0,0,0-4.959,4.96h0a4.88,4.88,0,0,0,1.449,3.511,4.943,4.943,0,0,0,3.51,1.449h64.738a4.989,4.989,0,0,0,3.511-1.449,4.928,4.928,0,0,0,1.466-3.511Z" transform="translate(-4133.091 -157.708)" fill="#ffc83a" fill-rule="evenodd"/>
      </g>
      <g id="Group_21" data-name="Group 21" transform="translate(0 84.003)">
        <path id="Path_6" data-name="Path 6" d="M5350.491,85.642a2.9,2.9,0,0,0-.877-2.092,2.945,2.945,0,0,0-2.1-.864h-88.7a2.938,2.938,0,0,0-2.958,2.956v.01a2.938,2.938,0,0,0,2.958,2.956h88.7a3.021,3.021,0,0,0,2.1-.864,2.911,2.911,0,0,0,.877-2.1Z" transform="translate(-5255.857 -82.686)" fill="#dde4f0" fill-rule="evenodd"/>
      </g>
    </g>
    <g id="Group_28" data-name="Group 28" transform="translate(814.923 380.777)">
      <g id="Group_25" data-name="Group 25" transform="translate(9.23 0)">
        <g id="Group_23" data-name="Group 23">
          <path id="Path_7" data-name="Path 7" d="M3872.861,123.146h-34.712v10.8h36.464Z" transform="translate(-3838.149 -123.146)" fill="#eef4fe" fill-rule="evenodd"/>
        </g>
        <g id="Group_24" data-name="Group 24" transform="translate(0.024 10.796)">
          <path id="Path_8" data-name="Path 8" d="M7446.812,436.167a5.849,5.849,0,0,0-1.654-4.05,5.737,5.737,0,0,0-4.049-1.684h-63.715v27.075a5.847,5.847,0,0,0,1.654,4.05,5.641,5.641,0,0,0,4.05,1.684h58.011a5.639,5.639,0,0,0,4.049-1.684,5.849,5.849,0,0,0,1.654-4.05Z" transform="translate(-7377.394 -430.433)" fill="#eef4fe" fill-rule="evenodd"/>
        </g>
      </g>
      <g id="Group_26" data-name="Group 26" transform="translate(9.23 56.135)">
        <path id="Path_9" data-name="Path 9" d="M3907.587,158.121a4.63,4.63,0,0,0-4.627-4.627h-60.2a4.618,4.618,0,0,0-4.613,4.627h0a4.618,4.618,0,0,0,4.613,4.627h60.2a4.63,4.63,0,0,0,4.627-4.627Z" transform="translate(-3838.149 -153.494)" fill="#eef4fe" fill-rule="evenodd"/>
      </g>
      <g id="Group_27" data-name="Group 27" transform="translate(0 73.087)">
        <path id="Path_10" data-name="Path 10" d="M4970.193,86.488a2.694,2.694,0,0,0-.816-1.946,2.74,2.74,0,0,0-1.954-.8h-82.478a2.806,2.806,0,0,0-1.953.8,2.754,2.754,0,0,0-.8,1.946h0a2.733,2.733,0,0,0,2.75,2.749h82.478a2.811,2.811,0,0,0,1.954-.8,2.765,2.765,0,0,0,.816-1.946Z" transform="translate(-4882.194 -83.739)" fill="#eef4fe" fill-rule="evenodd"/>
      </g>
    </g>
    <g id="Group_34" data-name="Group 34" transform="translate(911.582 280.042)">
      <g id="Group_31" data-name="Group 31" transform="translate(9.237)">
        <g id="Group_29" data-name="Group 29">
          <path id="Path_11" data-name="Path 11" d="M3880.733,114.94h-34.712v10.8h36.464Z" transform="translate(-3846.021 -114.94)" fill="#acb9d2" fill-rule="evenodd"/>
        </g>
        <g id="Group_30" data-name="Group 30" transform="translate(0.037 10.763)">
          <path id="Path_12" data-name="Path 12" d="M7454.69,427.942a5.85,5.85,0,0,0-1.652-4.05,5.69,5.69,0,0,0-4.051-1.684h-63.714v27.075a5.847,5.847,0,0,0,1.654,4.05,5.641,5.641,0,0,0,4.049,1.684h57.981a5.641,5.641,0,0,0,4.052-1.684,5.851,5.851,0,0,0,1.653-4.05C7454.69,443.322,7454.69,433.948,7454.69,427.942Z" transform="translate(-7385.273 -422.208)" fill="#c5d2ea" fill-rule="evenodd"/>
        </g>
      </g>
      <g id="Group_32" data-name="Group 32" transform="translate(9.251 56.135)">
        <path id="Path_13" data-name="Path 13" d="M3915.468,149.915a4.63,4.63,0,0,0-4.627-4.627h-60.2a4.617,4.617,0,0,0-4.612,4.627h0a4.617,4.617,0,0,0,4.612,4.627h60.2a4.63,4.63,0,0,0,4.627-4.627Z" transform="translate(-3846.03 -145.288)" fill="#acb9d2" fill-rule="evenodd"/>
      </g>
      <g id="Group_33" data-name="Group 33" transform="translate(0 73.091)">
        <path id="Path_14" data-name="Path 14" d="M4978.062,78.284a2.694,2.694,0,0,0-.816-1.946,2.74,2.74,0,0,0-1.954-.8h-82.478a2.812,2.812,0,0,0-1.955.8,2.758,2.758,0,0,0-.8,1.946h0a2.732,2.732,0,0,0,2.751,2.749h82.478a2.81,2.81,0,0,0,1.954-.8,2.679,2.679,0,0,0,.816-1.946Z" transform="translate(-4890.063 -75.535)" fill="#dde4f0" fill-rule="evenodd"/>
      </g>
    </g>
    <g id="Group_40" data-name="Group 40" transform="translate(911.582 380.777)">
      <g id="Group_37" data-name="Group 37" transform="translate(9.237 0)">
        <g id="Group_35" data-name="Group 35">
          <path id="Path_15" data-name="Path 15" d="M3880.733,123.146h-34.712v10.8h36.464Z" transform="translate(-3846.021 -123.146)" fill="#eef4fe" fill-rule="evenodd"/>
        </g>
        <g id="Group_36" data-name="Group 36" transform="translate(0.037 10.796)">
          <path id="Path_16" data-name="Path 16" d="M7454.69,436.167a5.85,5.85,0,0,0-1.652-4.05,5.69,5.69,0,0,0-4.051-1.684h-63.714v27.075a5.847,5.847,0,0,0,1.654,4.05,5.641,5.641,0,0,0,4.049,1.684h57.981a5.641,5.641,0,0,0,4.052-1.684,5.851,5.851,0,0,0,1.653-4.05C7454.69,451.5,7454.69,442.128,7454.69,436.167Z" transform="translate(-7385.273 -430.433)" fill="#eef4fe" fill-rule="evenodd"/>
        </g>
      </g>
      <g id="Group_38" data-name="Group 38" transform="translate(9.251 56.135)">
        <path id="Path_17" data-name="Path 17" d="M3915.468,158.121a4.63,4.63,0,0,0-4.627-4.627h-60.2a4.617,4.617,0,0,0-4.612,4.627h0a4.617,4.617,0,0,0,4.612,4.627h60.2a4.639,4.639,0,0,0,4.627-4.627Z" transform="translate(-3846.03 -153.494)" fill="#eef4fe" fill-rule="evenodd"/>
      </g>
      <g id="Group_39" data-name="Group 39" transform="translate(0 73.087)">
        <path id="Path_18" data-name="Path 18" d="M4978.062,86.488a2.694,2.694,0,0,0-.816-1.946,2.74,2.74,0,0,0-1.954-.8h-82.478a2.812,2.812,0,0,0-1.955.8,2.758,2.758,0,0,0-.8,1.946h0a2.732,2.732,0,0,0,2.751,2.749h82.478a2.81,2.81,0,0,0,1.954-.8,2.679,2.679,0,0,0,.816-1.946Z" transform="translate(-4890.063 -83.739)" fill="#eef4fe" fill-rule="evenodd"/>
      </g>
    </g>
    <g id="Group_46" data-name="Group 46" transform="translate(718.501 280.042)">
      <g id="Group_43" data-name="Group 43" transform="translate(9.25)">
        <g id="Group_41" data-name="Group 41">
          <path id="Path_19" data-name="Path 19" d="M3865.015,114.94H3830.3v10.8h36.464Z" transform="translate(-3830.303 -114.94)" fill="#acb9d2" fill-rule="evenodd"/>
        </g>
        <g id="Group_42" data-name="Group 42" transform="translate(0.022 10.763)">
          <path id="Path_20" data-name="Path 20" d="M7438.963,427.942a5.84,5.84,0,0,0-1.654-4.05,5.683,5.683,0,0,0-4.049-1.684h-63.713v27.075a5.84,5.84,0,0,0,1.654,4.05,5.639,5.639,0,0,0,4.049,1.684h58.011a5.635,5.635,0,0,0,4.049-1.684,5.84,5.84,0,0,0,1.654-4.05Z" transform="translate(-7369.547 -422.208)" fill="#c5d2ea" fill-rule="evenodd"/>
        </g>
      </g>
      <g id="Group_44" data-name="Group 44" transform="translate(9.25 56.135)">
        <path id="Path_21" data-name="Path 21" d="M3899.741,149.915a4.63,4.63,0,0,0-4.627-4.627h-60.2a4.617,4.617,0,0,0-4.612,4.627h0a4.617,4.617,0,0,0,4.612,4.627h60.2a4.63,4.63,0,0,0,4.627-4.627Z" transform="translate(-3830.303 -145.288)" fill="#acb9d2" fill-rule="evenodd"/>
      </g>
      <g id="Group_45" data-name="Group 45" transform="translate(0 73.091)">
        <path id="Path_22" data-name="Path 22" d="M4962.336,78.284a2.7,2.7,0,0,0-.815-1.946,2.743,2.743,0,0,0-1.955-.8h-82.478a2.811,2.811,0,0,0-1.954.8,2.757,2.757,0,0,0-.8,1.946h0a2.73,2.73,0,0,0,2.75,2.749h82.478a2.813,2.813,0,0,0,1.955-.8,2.684,2.684,0,0,0,.815-1.946Z" transform="translate(-4874.338 -75.535)" fill="#dde4f0" fill-rule="evenodd"/>
      </g>
    </g>
    <g id="Group_52" data-name="Group 52" transform="translate(718.501 380.777)">
      <g id="Group_49" data-name="Group 49" transform="translate(9.25 0)">
        <g id="Group_47" data-name="Group 47">
          <path id="Path_23" data-name="Path 23" d="M3865.015,123.146H3830.3v10.8h36.464Z" transform="translate(-3830.303 -123.146)" fill="#eef4fe" fill-rule="evenodd"/>
        </g>
        <g id="Group_48" data-name="Group 48" transform="translate(0.022 10.796)">
          <path id="Path_24" data-name="Path 24" d="M7438.963,436.167a5.84,5.84,0,0,0-1.654-4.05,5.683,5.683,0,0,0-4.049-1.684h-63.713v27.075a5.84,5.84,0,0,0,1.654,4.05,5.639,5.639,0,0,0,4.049,1.684h58.011a5.636,5.636,0,0,0,4.049-1.684,5.84,5.84,0,0,0,1.654-4.05Z" transform="translate(-7369.547 -430.433)" fill="#eef4fe" fill-rule="evenodd"/>
        </g>
      </g>
      <g id="Group_50" data-name="Group 50" transform="translate(9.25 56.135)">
        <path id="Path_25" data-name="Path 25" d="M3899.741,158.121a4.63,4.63,0,0,0-4.627-4.627h-60.2a4.617,4.617,0,0,0-4.612,4.627h0a4.617,4.617,0,0,0,4.612,4.627h60.2a4.64,4.64,0,0,0,4.627-4.627Z" transform="translate(-3830.303 -153.494)" fill="#eef4fe" fill-rule="evenodd"/>
      </g>
      <g id="Group_51" data-name="Group 51" transform="translate(0 73.087)">
        <path id="Path_26" data-name="Path 26" d="M4962.336,86.488a2.7,2.7,0,0,0-.815-1.946,2.743,2.743,0,0,0-1.955-.8h-82.478a2.811,2.811,0,0,0-1.954.8,2.757,2.757,0,0,0-.8,1.946h0a2.73,2.73,0,0,0,2.75,2.749h82.478a2.813,2.813,0,0,0,1.955-.8,2.684,2.684,0,0,0,.815-1.946Z" transform="translate(-4874.338 -83.739)" fill="#eef4fe" fill-rule="evenodd"/>
      </g>
    </g>
    <g id="Group_53" data-name="Group 53" transform="translate(635.687 295.349)">
      <path id="Path_27" data-name="Path 27" d="M3746.284,122.46a4.948,4.948,0,0,0-1.467-3.534,5.008,5.008,0,0,0-3.549-1.468h-58.252a5.01,5.01,0,0,0-5.016,5h0a4.948,4.948,0,0,0,1.467,3.534,5.009,5.009,0,0,0,3.549,1.468h58.252a5.01,5.01,0,0,0,5.016-5Z" transform="translate(-3678 -117.459)" fill="#eef4fe" fill-rule="evenodd"/>
    </g>
    <g id="Group_54" data-name="Group 54" transform="translate(635.687 328.626)">
      <path id="Path_28" data-name="Path 28" d="M3746.284,125.167a4.948,4.948,0,0,0-1.467-3.534,5.008,5.008,0,0,0-3.549-1.468h-58.252a5.01,5.01,0,0,0-5.016,5h0a4.948,4.948,0,0,0,1.467,3.534,5.009,5.009,0,0,0,3.549,1.468h58.252a5.008,5.008,0,0,0,3.549-1.468,4.947,4.947,0,0,0,1.467-3.534Z" transform="translate(-3678 -120.165)" fill="#d3e3ff" fill-rule="evenodd"/>
    </g>
    <g id="Group_55" data-name="Group 55" transform="translate(635.687 361.919)">
      <path id="Path_29" data-name="Path 29" d="M3746.284,127.882a4.948,4.948,0,0,0-1.467-3.534,5.008,5.008,0,0,0-3.549-1.467h-58.252a5.01,5.01,0,0,0-5.016,5h0a4.948,4.948,0,0,0,1.467,3.534,5.009,5.009,0,0,0,3.549,1.468h58.252a5.01,5.01,0,0,0,5.016-5Z" transform="translate(-3678 -122.881)" fill="#eef4fe" fill-rule="evenodd"/>
    </g>
    <g id="Group_56" data-name="Group 56" transform="translate(635.687 395.197)">
      <path id="Path_30" data-name="Path 30" d="M3746.284,130.589a4.948,4.948,0,0,0-1.467-3.534,5.008,5.008,0,0,0-3.549-1.468h-58.252a5.01,5.01,0,0,0-5.016,5h0a4.948,4.948,0,0,0,1.467,3.534,5.009,5.009,0,0,0,3.549,1.468h58.252a5.008,5.008,0,0,0,3.549-1.468,4.947,4.947,0,0,0,1.467-3.534Z" transform="translate(-3678 -125.587)" fill="#eef4fe" fill-rule="evenodd"/>
    </g>
    <g id="Group_57" data-name="Group 57" transform="translate(635.687 428.49)">
      <path id="Path_31" data-name="Path 31" d="M3746.284,133.3a4.948,4.948,0,0,0-1.467-3.534,5.008,5.008,0,0,0-3.549-1.468h-58.252a5.01,5.01,0,0,0-5.016,5h0a4.948,4.948,0,0,0,1.467,3.534,5.009,5.009,0,0,0,3.549,1.468h58.252a5.01,5.01,0,0,0,5.016-5Z" transform="translate(-3678 -128.303)" fill="#eef4fe" fill-rule="evenodd"/>
    </g>
    <g id="Group_58" data-name="Group 58" transform="translate(635.687 461.768)">
      <path id="Path_32" data-name="Path 32" d="M3746.284,136.011a4.948,4.948,0,0,0-1.467-3.534,5.008,5.008,0,0,0-3.549-1.467h-58.252a5.01,5.01,0,0,0-5.016,5h0a4.948,4.948,0,0,0,1.467,3.534,5.009,5.009,0,0,0,3.549,1.467h58.252a5.008,5.008,0,0,0,3.549-1.467,4.947,4.947,0,0,0,1.467-3.534Z" transform="translate(-3678 -131.009)" fill="#eef4fe" fill-rule="evenodd"/>
    </g>
    <g id="Group_62" data-name="Group 62" transform="translate(713.849 352.359)">
      <g id="Group_59" data-name="Group 59" transform="translate(0 0.02)">
        <path id="Path_33" data-name="Path 33" d="M501.322,163.55l-.021.021c-.021.021-.032.053-.053.074a6.407,6.407,0,0,1-.647.891,8.412,8.412,0,0,1-.732.859c-.244.265-.509.52-.764.753a40.746,40.746,0,0,0-3.4,2.939c-.965,1.135-.838,3.321-.371,5.454a33.838,33.838,0,0,0,1.836,5.645s-17.539,18.494-25.04,2.451a101.225,101.225,0,0,0-4.859-9.284c-.021-.021-.032-.021-.032-.021-4.477-7.151-7.989-8.6-15.7-15.013-10.26-8.531-7.31-20.764,2.409-29.953,4.753-4.488,11.533-6.78,18.08-6.875,6.875-.127,13.475,2.164,17.22,6.875,0,0,.435.573,1.167,1.57,2.408,3.289,7.958,11.226,10.716,18.409a26.88,26.88,0,0,1,1.369,4.531C503.529,158.044,502.722,161.3,501.322,163.55Z" transform="translate(-445.118 -121.486)" fill="#fe745f" fill-rule="evenodd"/>
      </g>
      <g id="Group_61" data-name="Group 61" transform="translate(0.017 0)">
        <path id="Path_34" data-name="Path 34" d="M448.225,220.411s7.308,10.455,4.353,11.206c-2.937.752-11.416-.437-12.011,6.556-.594,6.976,9.528,5.717,2.85,11.294-6.4,5.35-12.308,4.213-12.815,4.108a.054.054,0,0,0-.035-.017c-4.476-7.15-7.99-8.6-15.7-15.018-10.262-8.532-7.308-20.769,2.413-29.948,4.755-4.493,11.539-6.783,18.077-6.871,6.871-.122,13.479,2.168,17.22,6.871,0,0,.437.577,1.171,1.573a14.473,14.473,0,0,1-1.661,5.437A16.184,16.184,0,0,1,448.225,220.411Z" transform="translate(-408.448 -201.698)" fill="#1f2a82" fill-rule="evenodd"/>
        <path id="Path_35" data-name="Path 35" d="M446.165,225.79c-1.731,2.78-4.353,4.021-5.595,5.507-.961,1.136-.839,3.322-.367,5.455-2.36.035-4.825-.507-6.084-2.5-2.885-4.563.909-6.451,5.594-6.311C444.1,228.063,445.955,226.035,446.165,225.79Z" transform="translate(-389.989 -183.685)" fill="#ed533f" fill-rule="evenodd"/>
        <g id="Group_60" data-name="Group 60" transform="translate(26.908)">
          <path id="Path_36" data-name="Path 36" d="M4484.5,264.386c-.395.025-3.306-.173-7.9-7.649a22.284,22.284,0,0,0-4.491-5.33c-4.194-3.676-8.908-5.157-12.436-7.8a12.342,12.342,0,0,1-4.292-6.094c6.859-.123,13.471,2.171,17.222,6.859,0,0,.443.567,1.159,1.579C4476.189,249.261,4481.741,257.206,4484.5,264.386Z" transform="translate(-4455.39 -237.512)" fill="rgba(255,255,255,0.3)" fill-rule="evenodd"/>
        </g>
      </g>
    </g>
    <g id="Group_63" data-name="Group 63" transform="translate(851.583 331.785)">
      <path id="Path_37" data-name="Path 37" d="M547.561,142.274s5.889-19.48-4.753-17.708c0,0-4.042-8.584-8.053-2.759,0,0-4.753-12.753-9.051-12.074s.074,5.878,2.918,14.833,5.019,15.5,5.019,15.5l7.024,5.5Z" transform="translate(-523.901 -109.706)" fill="#fe745f" fill-rule="evenodd"/>
    </g>
    <g id="Group_64" data-name="Group 64" transform="translate(680.671 561.635)">
      <path id="Path_38" data-name="Path 38" d="M442.778,244.643s-16.8,11.12-16.637,19.8,18.186,2.716,23.534-3.48c0,0,5.56,5.273,10.334,3.48s.541-5.74-.679-9.846,1.008-7.342,1.91-8.891C461.229,245.7,448.115,236.272,442.778,244.643Z" transform="translate(-426.14 -241.179)" fill="#fe745f" fill-rule="evenodd"/>
    </g>
    <g id="Group_65" data-name="Group 65" transform="translate(709.553 804.131)">
      <path id="Path_39" data-name="Path 39" d="M488.454,388.507s-12.34,26.1-7.4,28.276,19.374,10.387,20.138,14.663H442.661l7.194-41.507C462.852,379.425,475.775,374.523,488.454,388.507Z" transform="translate(-442.661 -379.886)" fill="#b14d1b" fill-rule="evenodd"/>
    </g>
    <g id="Group_66" data-name="Group 66" transform="translate(714.963 537.198)">
      <path id="Path_40" data-name="Path 40" d="M543.668,328.429s-3.247,25.528-13.008,66.123c-2.292,9.528-11.417,26.027-14.016,36.043-8.828,34.016-20.658,67.852-35.194,83.195,0,0-33.39.722-35.566,0s24-99.916,27.693-147.96c2.483-32.329,8.849-124.437,8.849-124.437s16.34-29.825,31.353-3S543.668,328.429,543.668,328.429Z" transform="translate(-445.755 -227.201)" fill-rule="evenodd" fill="url(#linear-gradient)"/>
    </g>
    <g id="Group_67" data-name="Group 67" transform="translate(856.271 772.667)">
      <path id="Path_41" data-name="Path 41" d="M526.583,361.888v40.086l14.25,42.94h62.717s-3.066-7.586-13.889-10.8-14.653-7.438-17.889-17.019-5.263-18.016-5.263-18.016Z" transform="translate(-526.583 -361.888)" fill="#b14d1b" fill-rule="evenodd"/>
    </g>
    <g id="Group_68" data-name="Group 68" transform="translate(763.739 527.867)">
      <path id="Path_42" data-name="Path 42" d="M473.655,240.019S508.595,352.6,522.94,393.6s44.807,118.06,46.261,122.23,31.682.477,40.128-.371-.424-41.38-7.13-66.526-58.187-211.621-58.187-211.621S481.581,200.814,473.655,240.019Z" transform="translate(-473.655 -221.864)" fill-rule="evenodd" fill="url(#linear-gradient-2)"/>
    </g>
    <g id="Group_77" data-name="Group 77" transform="translate(899.414 575.452)">
      <g id="Group_69" data-name="Group 69" transform="translate(126.559 211.889)">
        <path id="Path_43" data-name="Path 43" d="M338.24,335.42l-4.824,34.159c-1.488,10.37-2.957,20.73-3.882,27.292a8.05,8.05,0,0,1-7.957,6.922H263.241a8.05,8.05,0,0,1-7.957-6.922c-1.525-10.666-4.455-31.377-6.506-45.8-1.275-9.076-2.2-15.647-2.2-15.647H338.24Z" transform="translate(-246.578 -335.42)" fill="#e6971a" fill-rule="evenodd"/>
      </g>
      <g id="Group_71" data-name="Group 71" transform="translate(126.556 211.889)">
        <g id="Group_70" data-name="Group 70" transform="translate(0 0)">
          <path id="Path_44" data-name="Path 44" d="M2163.381,158.834s-2.417,17.081-4.824,34.162c-9.69-4.806-22.341-11.346-32.255-16.52a53.541,53.541,0,0,0-33.969-5.245c-7.273,1.295-14.812,2.622-18.411,3.253-1.278-9.074-2.2-15.646-2.2-15.646h91.663Z" transform="translate(-2071.717 -158.834)" fill="#d5880d" fill-rule="evenodd"/>
        </g>
      </g>
      <g id="Group_75" data-name="Group 75" transform="translate(0 0)">
        <path id="Path_45" data-name="Path 45" d="M343.661,259.134c10.37,5.333,12.135,21.9,0,21.682-.591-.018-1.211-.018-1.821-.037-3.669-.083-7.5-.231-11.016-.139-7.726.176-13.965,1.414-13.863,6.553a2.52,2.52,0,0,0,1.71,2.588c4.455,1.765,16.294-2.865,19.491,12.884.139.628.24,1.312.351,2.015,2.412,17-10.1,23.965-26.922,33.642-.314.194-.628.37-.943.564-4.917,2.819-10.157,5.887-15.49,9.529-24.085,16.424-13.983,67.228-13.983,67.228s-1.9,1.451-3.022-5.333c-1.118-6.8-3.318-34.806-2.828-44.529.277-5.684-3.706-11.7-7.255-20.767a78.877,78.877,0,0,1-3.078-9.566,75.091,75.091,0,0,1-2.153-15.416c-.86-23,9.214-34.843,19.251-39.742.333-.157.665-.3,1-.453.684-.3,1.368-.564,2.043-.8,10.942-3.882,8.724-8.512,4.917-14.667-3.826-6.155-1.433-12.08,5.12-15.194,6.553-3.133,14.02-5.592,21.8-19,7.8-13.411,26.377-17.449,38.336-7.311,11.941,10.157-6.035,16.017-14.861,20.213C331.591,247.285,333.273,253.82,343.661,259.134Z" transform="translate(-108.816 -212.007)" fill="#00b87d" fill-rule="evenodd"/>
        <g id="Group_73" data-name="Group 73" transform="translate(156.169 66.704)">
          <g id="Group_72" data-name="Group 72">
            <path id="Path_46" data-name="Path 46" d="M648.684,383.821c1.157,3.236,2.217,6.483,3.215,9.772-.318.191-.626.371-.944.562-1.05-3.459-2.186-6.907-3.406-10.313-3.151,3.353-17.74,18.133-30.876,17.539a43.143,43.143,0,0,1-8.308-1.082,79.372,79.372,0,0,1-3.077-9.56,44.278,44.278,0,0,1,8.669-5.136c16.764-7.99,29.581-4.234,33.178-2.854a193.411,193.411,0,0,0-24.754-47.164c.329-.159.669-.3,1-.456l1.05,1.464a194.946,194.946,0,0,1,23.693,45.647c-.053-6.08.615-25.858,10.854-37.169,4.456,1.761,16.3-2.865,19.491,12.881C669.873,373.316,651.984,382.282,648.684,383.821Z" transform="translate(-605.288 -333.99)" fill="rgba(0,140,95,0.6)" fill-rule="evenodd"/>
            <path id="Path_47" data-name="Path 47" d="M642.946,336.4c5.019-2.5,9.093-2.674,11.014.138C650.289,336.455,646.469,336.317,642.946,336.4Z" transform="translate(-577.109 -334.477)" fill="rgba(0,140,95,0.6)" fill-rule="evenodd"/>
          </g>
        </g>
        <path id="Path_48" data-name="Path 48" d="M337.535,220.25l.194.185v.268c-.083.12-.092.148-.388.277a37.762,37.762,0,0,0-6.321,3.854c-9.963,7.209-17.939,16.9-24.806,27.209a155.094,155.094,0,0,0-12.856,23.4c-7.846,17.8-13.133,36.664-16.737,55.74-3.623,19.159-5.518,38.67-4.464,58.023a147.013,147.013,0,0,0,2.542,20.73l.055.268-.055.268a.471.471,0,0,1-.222.148h-.139a.471.471,0,0,1-.222-.148l-.055-.129c-3.494-17.246-3.5-35.093-1.885-52.755a286.341,286.341,0,0,1,10.443-54.428c4.371-14.889,9.815-29.474,17.615-42.856,6.46-11.091,14.029-21.608,23.428-30.315a57.447,57.447,0,0,1,12.643-9.307c.314-.157.628-.314.943-.453C337.258,220.259,337.387,220.222,337.535,220.25Z" transform="translate(-102.57 -209.722)" fill="#fff" fill-rule="evenodd"/>
        <g id="Group_74" data-name="Group 74">
          <path id="Path_49" data-name="Path 49" d="M609.952,323.717c-2.886-2.589-11.13-11.438-11.724-28.532-.722-20.659,16.542-12.266,12.764,28.882a111.391,111.391,0,0,1,26.547,13.465,157.06,157.06,0,0,1,27.7,24.266c.255-56.968,22.663-66.348,19.7-42.761-2.812,22.293-17.825,40.872-19.544,42.93a171.105,171.105,0,0,1,12.913,16.117A194.691,194.691,0,0,1,702,423.732c-.053-6.451.7-28.309,12.828-39.132,14.324-12.786,27.4-13.741,20.616,7.767-6.207,19.714-29.093,31.184-32.871,32.967A233.456,233.456,0,0,1,713.912,472.8a152.722,152.722,0,0,1,1.4,15.534s.1.042-.127.4l-.35.149-.35-.138a9.369,9.369,0,0,1-.18-1.4,206.776,206.776,0,0,0-6.547-41.212c-1.783-7.024-3.883-13.974-6.334-20.786-3.141,3.363-17.74,18.123-30.876,17.529-14.812-.668-22.589-6.3-2.705-15.778,16.775-8,29.592-4.223,33.189-2.854-8.191-22.41-20.053-43.387-36.064-61.191-.35,1.05-5.486,15.746-19.024,21.868-14.059,6.345-11.385-7.459-2.525-14.239,8.478-6.494,20.5-7.6,21.507-7.682-2.037-2.271-4.159-4.5-6.334-6.664-12.69-12.595-27.12-23.439-44.33-30.06-.955-.371-1.92-.721-2.886-1.061.615,3.5,3.056,20.723-7.6,27.789-11.692,7.756-5.878-20.712,6.812-28.065-11.459-3.926-23.767-5.793-35.682-3.608a27.075,27.075,0,0,0-2.748.626l-.393-.032c-.021-.021-.053-.042-.074-.064-2.228,2.674-16.594,19.428-34.133,27.365-19.035,8.605-8.531-31.641,33.953-27.779h0c.127-.414.35-.414.35-.414a44.956,44.956,0,0,1,13.019-1.517h.286A80.212,80.212,0,0,1,609.952,323.717Z" transform="translate(-528.439 -284.328)" fill="#008c5f" fill-rule="evenodd"/>
        </g>
      </g>
      <g id="Group_76" data-name="Group 76" transform="translate(119.708 195.946)">
        <rect id="Rectangle_15" data-name="Rectangle 15" width="105.368" height="20.74" fill="#ffff3e"/>
      </g>
    </g>
    <g id="Group_78" data-name="Group 78" transform="translate(692.007 360.763)">
      <path id="Path_50" data-name="Path 50" d="M615.266,194.456c-7.852,40.319-12.881,34.515-68.075,21.677,0,0,8.807,26.971,16.329,51.576,5.051,16.435,9.528,31.82,10.4,37.359,2.207,13.825-5.209,11.449-26.727,9.528s-37.168,3.374-46.908,7.013c-9.719,3.639-9.549,3.565-11.533-19.724-1.889-22.377-12.17-51.958-15.767-63.057,0,0-6.886,25.719-11.852,54.229a334.162,334.162,0,0,0-4.743,38.621s-9.369,7.915-23.65-1.761c0,0-2.08-53.253,11.608-103.917,13.5-49.879,44.287-53.55,82.1-48.372.573.074,1.167.159,1.761.244,38.621,5.528,55.311,16.923,60.977,4.584s11.364-43.109,12.764-54.77c0,0,1.05-.265,2.653-.562,4-.721,11.523-1.7,14.865.562C619.467,127.675,623.117,154.159,615.266,194.456Z" transform="translate(-432.625 -126.282)" fill-rule="evenodd" fill="url(#linear-gradient-3)"/>
    </g>
    <path id="Path_51" data-name="Path 51" d="M490.072,311.928c-3.619,1.381-7.22.8-10.053-3.217-9.3-13.164-16.014-43.777-27.011-46.451-10.979-2.675-10.122-9.406,0-7.168,10.14,2.238,20.734,5.262,20.734,5.262S482.554,287.33,490.072,311.928Z" transform="translate(332.838 190.264)" fill="#1083e8" fill-rule="evenodd"/>
    <path id="Path_52" data-name="Path 52" d="M427.2,281.643s-6.888,25.717-11.853,54.231c-2.78,3.025-5.28,3.671-6.643.332-3.566-8.706,9.965-62.885,9.965-62.885-2.937-14.108,0-20.647,1.958-14.476C422.605,265.017,427.2,281.643,427.2,281.643Z" transform="translate(305.164 191.668)" fill="#1083e8" fill-rule="evenodd"/>
    <g id="Group_79" data-name="Group 79" transform="translate(785.828 361.592)">
      <path id="Path_53" data-name="Path 53" d="M4560.585,260.435c-2.171,27.388-15.544,54.653-30.5,51.125-12.955-3.084-41.083-9.3-48.929-18.259.567.074,1.16.148,1.775.247,38.616,5.527,55.32,16.926,60.97,4.589,5.675-12.337,11.375-43.105,12.756-54.776,0,0,1.061-.271,2.665-.568C4560.585,247.135,4561.2,252.786,4560.585,260.435Z" transform="translate(-4481.16 -242.793)" fill="rgba(255,255,255,0.2)" fill-rule="evenodd"/>
    </g>
    <g id="Group_80" data-name="Group 80" transform="translate(357.003 827.692)">
      <circle id="Ellipse_3" data-name="Ellipse 3" cx="14.004" cy="14.004" r="14.004" fill="#1f2a82"/>
    </g>
    <g id="Group_81" data-name="Group 81" transform="translate(272.553 805.523)">
      <path id="Path_54" data-name="Path 54" d="M259.285,461.03a12.854,12.854,0,0,1,12.378,12.378V497.1s-.559,4-3.5,5.227a5.863,5.863,0,0,1-7.815-5.227V473.582a1.261,1.261,0,0,0-1.189-1.241c-25.752-.49-51.521,0-77.291,0a1.235,1.235,0,0,0-1.241,1.241v17.081s-2.885,7.745-8.217,5.035a5.878,5.878,0,0,1-3.077-5.035c0-9.72-2.045-20.927,4.231-26.486a12.705,12.705,0,0,1,8.147-3.129Q220.5,460.785,259.285,461.03Z" transform="translate(-169.018 -460.914)" fill="#1f2a82" fill-rule="evenodd"/>
    </g>
    <g id="Group_82" data-name="Group 82" transform="translate(272.984 556.998)">
      <rect id="Rectangle_16" data-name="Rectangle 16" width="7.919" height="150.374" transform="translate(0 0)" fill="#1f2a82"/>
    </g>
    <g id="Group_83" data-name="Group 83" transform="translate(316.823 713.995)">
      <rect id="Rectangle_17" data-name="Rectangle 17" width="13.479" height="112.406" transform="translate(0)" fill="#1f2a82"/>
    </g>
    <path id="Path_55" data-name="Path 55" d="M224.508,425.65H207.585s-18.112,9.511-18.532,13.007,15,48.951,18.532,40.8,3.007-21.259,3.007-21.259l6.976-4.93Z" transform="translate(141.247 318.223)" fill="#1059e8" fill-rule="evenodd"/>
    <g id="Group_84" data-name="Group 84" transform="translate(368.105 803.886) rotate(-14.443)">
      <path id="Path_56" data-name="Path 56" d="M33.573,0,19.062,2.587S7.1,22.255,1.02,32.256a7,7,0,0,0,2.2,9.528c11.364,7.57,36.172,23.934,40.892,25.105,6.171,1.538-2.448-13.567-5.035-20-4.336-10.752,5.944-26.241,5.944-26.241V2.587Z" transform="translate(0 0)" fill="#1059e8" fill-rule="evenodd"/>
    </g>
    <path id="Path_57" data-name="Path 57" d="M212.5,377.011l18.654-8.881s100.455,36.172,103.1,57.011c2.622,20.839-11.329,31.591-52.955,46.7s-71.644,24.476-71.644,24.476-9.441-15.018-10-27.623c0,0,37.85-22.465,46.154-28.322C254.074,434.512,212.5,377.011,212.5,377.011Z" transform="translate(149.182 275.183)" fill="url(#linear-gradient-4)"/>
    <path id="Path_58" data-name="Path 58" d="M183.73,359.153l-6.521,8.794s-12.1,50.507,46.766,67.256c58.864,16.766,67.448,20.664,57.2,34.93-14.808,20.595-27.8,70.28-27.8,70.28s5.822,9.406,34.179,14.231c0,0,45.56-76.5,50.8-104.616s-57.273-58.06-89.669-75.193C216.318,357.719,183.73,359.153,183.73,359.153Z" transform="translate(131.622 268.443)" fill="url(#linear-gradient-5)"/>
    <g id="Group_85" data-name="Group 85" transform="matrix(0.991, 0.133, -0.133, 0.991, 461.28, 605.665)">
      <path id="Path_59" data-name="Path 59" d="M.072,2.3S3.271-1.184,19.6.425C35.911,2.033,41.541,9.376,40.352,10.617S6.278,14.883,2.8,14.148C-.7,13.414.072,2.3.072,2.3Z" transform="translate(0 0)" fill="#fe715f" fill-rule="evenodd"/>
    </g>
    <g id="Group_90" data-name="Group 90" transform="translate(308.832 511.475)">
      <path id="Path_60" data-name="Path 60" d="M243.26,308.68l6.591,3.6s-1.5,61.976-1.713,67.046c-.21,5.052-27.8-8.654-27.8-8.654Z" transform="translate(-144.168 -280.777)" fill="#c7d3e9" fill-rule="evenodd"/>
      <path id="Path_61" data-name="Path 61" d="M270.11,364.487v.018a2.281,2.281,0,0,1-.14.3c-3.549,7.413-6.783,15.175-9.58,22.57-4.965,13.094-8.636,25.035-10.577,31.679-1,3.479-1.538,5.507-1.538,5.507-15.647-.927-71.5-6.923-71.5-6.923,2.552-56.084,18.147-74.354,36.906-100.63,18.741-26.259,49.231-24.248,49.231-24.248h18.811A66.661,66.661,0,0,0,281,305.483a90.116,90.116,0,0,0,.717,9.266C283.432,327.581,283.1,337.388,270.11,364.487Z" transform="translate(-176.77 -292.72)" fill-rule="evenodd" fill="url(#linear-gradient-6)"/>
      <path id="Path_62" data-name="Path 62" d="M242.231,368.984c-4.965,13.094-8.636,25.035-10.577,31.679-17.972-8.794-11.171-21.871-11.171-21.871-12.255-17.343-22.675-49.9-18.514-59.161s18.514,11.993,18.514,11.993S241.13,364.212,242.231,368.984Z" transform="translate(-158.612 -274.333)" fill="#c7d3e9" fill-rule="evenodd"/>
      <g id="Group_87" data-name="Group 87" transform="translate(93.339 12.724)">
        <g id="Group_86" data-name="Group 86" transform="translate(0 0)">
          <path id="Path_63" data-name="Path 63" d="M4478.22,409c.358-7-.385-44.9,2.308-52.183,1.8-4.874,4.669-7.184,8.594-6.824a92.122,92.122,0,0,0,.719,9.262C4491.535,372.082,4491.2,381.908,4478.22,409Z" transform="translate(-4478.22 -349.956)" fill="rgba(255,255,255,0.4)" fill-rule="evenodd"/>
        </g>
      </g>
      <path id="Path_64" data-name="Path 64" d="M317.9,387.471c.1,4.318-.787,9.353-4.021,11.154-5.437,3.007-71.609,8.881-84.336,0s-25.088-57.815-26-78.078c-.927-20.262,31.574-29.318,38.182-9.056,0,0,3.619,29,8.357,47.466v.017c2.115,8.217,4.441,14.353,6.766,14.9,7.553,1.748,58.48,4.458,59.9,7.028A17.087,17.087,0,0,1,317.9,387.471Z" transform="translate(-156.747 -287.207)" fill-rule="evenodd" fill="url(#linear-gradient-7)"/>
      <g id="Group_89" data-name="Group 89" transform="translate(93.272 71.767)">
        <g id="Group_88" data-name="Group 88" transform="translate(0 0)">
          <path id="Path_65" data-name="Path 65" d="M4546.056,412.232c-14.5-1.18-42.382-3.079-53.593-4.284-12.879-1.411-14.6-17.215-14.238-24.219,2.1,8.21,4.437,14.341,6.772,14.906,7.543,1.745,58.469,4.464,59.906,7.03A16.648,16.648,0,0,1,4546.056,412.232Z" transform="translate(-4478.183 -383.729)" fill="rgba(255,255,255,0.4)" fill-rule="evenodd"/>
        </g>
      </g>
    </g>
    <g id="Group_93" data-name="Group 93" transform="translate(394.969 454.584)">
      <path id="Path_66" data-name="Path 66" d="M296.7,289.465a46.141,46.141,0,0,1-2.465,16.364c-5.647,16.871-17.92,27.762-30.228,24.668a18.2,18.2,0,0,1-3.566-1.276,7.129,7.129,0,0,0-8.427,1.766c-.437.455-.874.927-1.329,1.4a67.762,67.762,0,0,0-5.839,6.713c-.524.909-3.566-2.325-7.045-6.574-5.35-6.521-11.766-15.42-11.766-15.42s9.143-3.094,11.713-12.553a20.478,20.478,0,0,0,.594-6.976c-1.154-14.965,1.608-36.539,27.483-37.378,11.032-.35,19.213,3.689,24.371,10.245A32.37,32.37,0,0,1,296.7,289.465Z" transform="translate(-226.04 -260.178)" fill="#fe715f" fill-rule="evenodd"/>
      <g id="Group_92" data-name="Group 92" transform="translate(11.713 0)">
        <path id="Path_67" data-name="Path 67" d="M291.692,289.465c-1.416,2.081-4,2.22-6.731,1.538-4.825-1.171-10.122-4.878-10.122-4.878s-8.059,13.322-11.294,8.444c-3.374-5.087-10.455-16.189-15.035-8.444-4.58,7.762,1.888,14.476,1.888,14.476-5.4,6.836-12.483,6-17.658,3.951a20.477,20.477,0,0,0,.594-6.976c-1.154-14.965,1.608-36.539,27.483-37.378,11.032-.35,19.213,3.689,24.371,10.245A32.368,32.368,0,0,1,291.692,289.465Z" transform="translate(-232.74 -260.178)" fill="#1f2a82" fill-rule="evenodd"/>
        <g id="Group_91" data-name="Group 91" transform="translate(0.03 10.311)">
          <path id="Path_68" data-name="Path 68" d="M4493.722,352.557a68.48,68.48,0,0,0-5.85,6.722c-.512.9-3.565-2.335-7.055-6.568C4483.742,349.119,4488.1,349.016,4493.722,352.557Z" transform="translate(-4480.817 -290.65)" fill="rgba(255,162,150,0.4)" fill-rule="evenodd"/>
          <path id="Path_69" data-name="Path 69" d="M4528.515,335.019a46.519,46.519,0,0,1-2.463,16.368c-5.645,16.881-17.908,27.759-30.223,24.68,6.133-3.489,12.6-9.672,17.266-16.394a50.692,50.692,0,0,0,8.7-23.09,36.5,36.5,0,0,0-.718-12.982c-.925-3.592-.258-6,.949-7.568C4526.052,321.114,4528.231,327.759,4528.515,335.019Z" transform="translate(-4469.583 -316.034)" fill="rgba(255,162,150,0.4)" fill-rule="evenodd"/>
        </g>
      </g>
    </g>
    <g id="Group_94" data-name="Group 94" transform="translate(442.495 624.312)">
      <rect id="Rectangle_18" data-name="Rectangle 18" width="186.96" height="6.573" transform="translate(0)" fill="#fff"/>
    </g>
    <g id="Group_95" data-name="Group 95" transform="translate(612.341 628.085)">
      <rect id="Rectangle_19" data-name="Rectangle 19" width="3.215" height="227.537" transform="translate(0 0)" fill="#fff"/>
    </g>
    <g id="Group_96" data-name="Group 96" transform="translate(452.271 628.085)">
      <rect id="Rectangle_20" data-name="Rectangle 20" width="3.215" height="227.537" transform="translate(0 0)" fill="#fff"/>
    </g>
    <g id="Group_97" data-name="Group 97" transform="translate(535.149 533.392)">
      <path id="Path_70" data-name="Path 70" d="M342.246,306.263c.734.175.822.437.979.857L361.9,375c2.78,10.385-5.4,22.1-16.906,22.186h-37.9a1.2,1.2,0,0,1,0-2.378h37.885c9.248-.07,17.2-9.528,14.615-19.178l-18.654-67.868C340.725,306.63,341.109,306.193,342.246,306.263Z" transform="translate(-306.064 -306.256)" fill="#848484" fill-rule="evenodd"/>
    </g>
    <g id="Group_98" data-name="Group 98" transform="translate(473.514 621.931)">
      <path id="Path_71" data-name="Path 71" d="M953.326,355.9v2.378H902.2c-2.516-.1-2.861-2.255,0-2.378Z" transform="translate(-900.186 -355.9)" fill="#848484" fill-rule="evenodd"/>
    </g>
    <g id="Group_99" data-name="Group 99" transform="translate(553.015 458.973)">
      <path id="Path_72" data-name="Path 72" d="M369,263.691c3.846.787-1.469,7.675-4.738,13.444-22.64,39.826-36.766,84.581-44,129.791,0,0-.979,2.22-2.71,1.643-1.5-.49-1.381-2.552-1.084-4.353,7.745-46.871,22.553-93.078,46.731-133.55C364.914,267.835,366.208,263.569,369,263.691Z" transform="translate(-316.284 -263.689)" fill="#fff" fill-rule="evenodd"/>
    </g>
    <g id="Group_100" data-name="Group 100" transform="translate(273.01 694.813)">
      <path id="Path_73" data-name="Path 73" d="M374.016,408.888A12.583,12.583,0,0,0,361.44,396.3H279.847a12.583,12.583,0,0,0-12.576,12.587h0a12.583,12.583,0,0,0,12.576,12.587H361.44a12.583,12.583,0,0,0,12.576-12.587Z" transform="translate(-267.271 -396.3)" fill="#0cb076" fill-rule="evenodd"/>
    </g>
    <g id="Group_101" data-name="Group 101" transform="translate(290.322 542.403) rotate(80.492)">
      <path id="Path_74" data-name="Path 74" d="M92.78,12.587A12.594,12.594,0,0,0,80.193,0H12.588A12.594,12.594,0,0,0,0,12.587H0A12.594,12.594,0,0,0,12.588,25.175H80.193A12.594,12.594,0,0,0,92.78,12.587Z" transform="translate(0 0)" fill="#0cb076" fill-rule="evenodd"/>
    </g>
    <g id="Group_102" data-name="Group 102" transform="translate(263.171 827.692)">
      <circle id="Ellipse_4" data-name="Ellipse 4" cx="14.004" cy="14.004" r="14.004" fill="#1f2a82"/>
    </g>
    <g id="Group_134" data-name="Group 134" transform="translate(635.685 258.002)">
      <circle id="Ellipse_26" data-name="Ellipse 26" cx="5.549" cy="5.549" r="5.549" fill="#ff4800"/>
      <g id="Group_132" data-name="Group 132" transform="translate(22.601)">
        <circle id="Ellipse_27" data-name="Ellipse 27" cx="5.549" cy="5.549" r="5.549" fill="#ffc600"/>
      </g>
      <g id="Group_133" data-name="Group 133" transform="translate(45.213)">
        <circle id="Ellipse_28" data-name="Ellipse 28" cx="5.549" cy="5.549" r="5.549" fill="#00ff48"/>
      </g>
    </g>
  </g>
</svg>
