<?xml version="1.0" encoding="UTF-8" standalone="no"?>
<!DOCTYPE svg PUBLIC "-//W3C//DTD SVG 1.1//EN" "http://www.w3.org/Graphics/SVG/1.1/DTD/svg11.dtd">
<svg width="100%" height="100%" viewBox="0 0 215 54" version="1.1" xmlns="http://www.w3.org/2000/svg" xmlns:xlink="http://www.w3.org/1999/xlink" xml:space="preserve" xmlns:serif="http://www.serif.com/" style="fill-rule:evenodd;clip-rule:evenodd;stroke-linejoin:round;stroke-miterlimit:2;">
    <g transform="matrix(3.66269,0,0,3.66269,-84.524,-60.4245)">
        <g id="MrJS.dev">
            <g>
                <g transform="matrix(12,0,0,12,22.2632,28.2833)">
                    <path d="M0.884,0L0.882,-0.7L0.719,-0.7L0.479,-0.296L0.233,-0.7L0.07,-0.7L0.07,0L0.253,0L0.253,-0.361L0.432,-0.069L0.52,-0.069L0.7,-0.371L0.702,0L0.884,0Z" style="fill:white;fill-rule:nonzero;"/>
                </g>
                <g transform="matrix(12,0,0,12,33.8312,28.2833)">
                    <path d="M0.242,-0.477L0.242,-0.542L0.061,-0.542L0.061,0L0.251,0L0.251,-0.249C0.251,-0.344 0.304,-0.383 0.381,-0.383C0.395,-0.383 0.407,-0.382 0.424,-0.38L0.424,-0.551C0.344,-0.551 0.281,-0.526 0.242,-0.477Z" style="fill:white;fill-rule:nonzero;"/>
                </g>
                <g transform="matrix(12,0,0,12,39.2672,28.2833)">
                    <path d="M0.223,0.014C0.399,0.014 0.493,-0.076 0.493,-0.258L0.493,-0.7L0.055,-0.7L0.055,-0.547L0.297,-0.547L0.297,-0.246C0.297,-0.179 0.266,-0.144 0.209,-0.144C0.164,-0.144 0.125,-0.169 0.088,-0.217L-0.02,-0.089C0.034,-0.022 0.121,0.014 0.223,0.014Z" style="fill:rgb(253,202,1);fill-rule:nonzero;"/>
                </g>
                <g transform="matrix(12,0,0,12,46.0712,28.2833)">
                    <path d="M0.316,0.014C0.524,0.014 0.626,-0.09 0.626,-0.212C0.626,-0.47 0.229,-0.39 0.229,-0.497C0.229,-0.532 0.259,-0.56 0.342,-0.56C0.403,-0.56 0.469,-0.542 0.536,-0.506L0.597,-0.653C0.528,-0.693 0.434,-0.714 0.343,-0.714C0.135,-0.714 0.033,-0.612 0.033,-0.487C0.033,-0.227 0.431,-0.308 0.431,-0.197C0.431,-0.163 0.399,-0.14 0.317,-0.14C0.236,-0.14 0.148,-0.168 0.086,-0.209L0.021,-0.063C0.087,-0.017 0.201,0.014 0.316,0.014Z" style="fill:rgb(253,202,1);fill-rule:nonzero;"/>
                </g>
                <g transform="matrix(12,0,0,12,54.1952,28.2833)">
                    <path d="M0.141,0.009C0.206,0.009 0.255,-0.038 0.255,-0.104C0.255,-0.172 0.206,-0.216 0.141,-0.216C0.077,-0.216 0.027,-0.172 0.027,-0.104C0.027,-0.038 0.077,0.009 0.141,0.009Z" style="fill:rgb(76,115,164);fill-rule:nonzero;"/>
                </g>
                <g transform="matrix(12,0,0,12,57.6752,28.2833)">
                    <path d="M0.447,-0.742L0.447,-0.495C0.411,-0.533 0.36,-0.551 0.297,-0.551C0.149,-0.551 0.03,-0.444 0.03,-0.272C0.03,-0.099 0.149,0.009 0.297,0.009C0.367,0.009 0.42,-0.011 0.456,-0.054L0.456,0L0.637,0L0.637,-0.742L0.447,-0.742ZM0.337,-0.142C0.272,-0.142 0.223,-0.189 0.223,-0.272C0.223,-0.354 0.272,-0.4 0.337,-0.4C0.401,-0.4 0.45,-0.354 0.45,-0.272C0.45,-0.189 0.401,-0.142 0.337,-0.142Z" style="fill:rgb(76,115,164);fill-rule:nonzero;"/>
                </g>
                <g transform="matrix(12,0,0,12,66.1712,28.2833)">
                    <path d="M0.615,-0.27C0.615,-0.449 0.485,-0.551 0.325,-0.551C0.154,-0.551 0.027,-0.435 0.027,-0.272C0.027,-0.11 0.152,0.009 0.345,0.009C0.448,0.009 0.524,-0.021 0.576,-0.079L0.476,-0.183C0.439,-0.151 0.404,-0.136 0.351,-0.136C0.281,-0.136 0.234,-0.168 0.218,-0.223L0.612,-0.223C0.613,-0.238 0.615,-0.256 0.615,-0.27ZM0.326,-0.416C0.385,-0.416 0.427,-0.38 0.437,-0.323L0.215,-0.323C0.226,-0.38 0.267,-0.416 0.326,-0.416Z" style="fill:rgb(76,115,164);fill-rule:nonzero;"/>
                </g>
                <g transform="matrix(12,0,0,12,73.8752,28.2833)">
                    <path d="M0.451,-0.542L0.314,-0.211L0.184,-0.542L-0.011,-0.542L0.212,0L0.408,0L0.632,-0.542L0.451,-0.542Z" style="fill:rgb(76,115,164);fill-rule:nonzero;"/>
                </g>
            </g>
        </g>
    </g>
</svg>
